# xmcd CD database file
#
# Track frame offsets:
#	150
#	12900
#	29490
#	42308
#	52022
#	63830
#	78033
#	99247
#	110085
#	121800
#	135977
#	147410
#	158632
#	173042
#	184052
#	198795
#	215175
#	231127
#	248835
#	261328
#	277992
#	292105
#
# Disc length: 4089 seconds
#
# Revision: 7
# Processed by: cddbd v1.5.2PL0 Copyright (c) Steve Scherf et al.
# Submitted via: jetAudio 7
#
DISCID=390ff716
DTITLE=Danie Botha - (006) Treffers
DYEAR=1900
DGENRE=CD No 006
TTITLE0=Wenners
TTITLE1=Think Of Love
TTITLE2=Wie Kan Dit Verstaan
TTITLE3=Bokka
TTITLE4=Kers In Die Wind
TTITLE5=Ek Kan
TTITLE6=Spel Sonder Reëls
TTITLE7=Waarnatoe
TTITLE8=Reach Out
TTITLE9=Tye (Vir Daleen)
TTITLE10=Shosaloza
TTITLE11=Die Lewe
TTITLE12=Vir My Is Jy Liefde (Ons Huwelikslied)
TTITLE13=Wys My 'n Plek
TTITLE14=Wiele
TTITLE15=Stille Rivierstroom
TTITLE16=Almal Droom
TTITLE17=Skipskop
TTITLE18=Kom Saam Met My
TTITLE19=Dit Rëen In My Hart
TTITLE20=You're A Star
TTITLE21=Stuur Groete Aan Mannetjies Roux
EXTD=
EXTT0=
EXTT1=
EXTT2=
EXTT3=
EXTT4=
EXTT5=
EXTT6=
EXTT7=
EXTT8=
EXTT9=
EXTT10=
EXTT11=
EXTT12=
EXTT13=
EXTT14=
EXTT15=
EXTT16=
EXTT17=
EXTT18=
EXTT19=
EXTT20=
EXTT21=
PLAYORDER=
